# xmcd CD database file
#
# Track frame offsets:
#	150
#	19775
#	40272
#	59962
#	77237
#	97920
#	116942
#	137890
#	158912
#	178337
#
# Disc length: 2660 seconds
#
# Revision: 0
# Processed by: cddbd v1.4PL0 Copyright (c) Steve Scherf et al.
# Submitted via: CDex 1.50beta9
#
DISCID=900a620a
DTITLE=Wilfrido Vargas - Siempre Wilfrido
DYEAR=1990
DGENRE=Merengue
TTITLE0=El Heladero
TTITLE1=Agua
TTITLE2=Me Siento Cruel
TTITLE3=Leon Salvaje
TTITLE4=Invitame
TTITLE5=El Vampiro
TTITLE6=Bachata Merengue - El Recuento
TTITLE7=Maria
TTITLE8=Di Lo Que Quieras
TTITLE9=Bachata Jazz - Noches
EXTD=YEAR: 1990
EXTT0=
EXTT1=
EXTT2=
EXTT3=
EXTT4=
EXTT5=
EXTT6=
EXTT7=
EXTT8=
EXTT9=
PLAYORDER=
